<svg width="57" height="56" viewBox="0 0 57 56" fill="none" xmlns="http://www.w3.org/2000/svg">
<g clip-path="url(#clip0_4134_31291)">
<path d="M12.9084 20.2522C12.1502 20.2522 11.507 20.5166 10.9783 21.0453C10.4495 21.5741 10.1851 22.2086 10.1851 22.9491V34.3192C10.1851 35.0783 10.4494 35.721 10.9783 36.2498C11.507 36.7785 12.1502 37.043 12.9084 37.043C13.6659 37.043 14.3053 36.7786 14.8258 36.2498C15.3453 35.721 15.6058 35.0783 15.6058 34.3192V22.9491C15.6058 22.2085 15.3414 21.5741 14.8126 21.0453C14.2838 20.5166 13.6489 20.2522 12.9084 20.2522Z" fill="white"/>
<path d="M34.8027 10.0453L36.6801 6.58196C36.8034 6.35267 36.7595 6.17684 36.5482 6.05321C36.3188 5.9466 36.1426 6.00062 36.0195 6.21145L34.1158 9.7025C32.4406 8.96189 30.6689 8.5909 28.8007 8.5909C26.932 8.5909 25.1601 8.96197 23.4856 9.7025L21.5819 6.21145C21.4582 6.00062 21.2819 5.94708 21.0531 6.05321C20.8413 6.1774 20.7975 6.35267 20.9212 6.58196L22.7987 10.0453C20.895 11.0162 19.3787 12.3683 18.2506 14.1046C17.1224 15.8418 16.5581 17.7403 16.5581 19.8032H41.0166C41.0166 17.7408 40.4522 15.8422 39.3242 14.1046C38.1959 12.3683 36.6885 11.0162 34.8027 10.0453ZM23.9482 15.0828C23.7452 15.2864 23.5027 15.3876 23.2208 15.3876C22.9383 15.3876 22.7008 15.2864 22.507 15.0828C22.3132 14.8803 22.2163 14.6387 22.2163 14.3559C22.2163 14.074 22.3132 13.832 22.507 13.629C22.7008 13.4264 22.9389 13.3251 23.2208 13.3251C23.5027 13.3251 23.7452 13.4264 23.9482 13.629C24.1507 13.8325 24.2525 14.074 24.2525 14.3559C24.2519 14.6383 24.1503 14.8803 23.9482 15.0828ZM35.0933 15.0828C34.8991 15.2864 34.661 15.3876 34.3796 15.3876C34.0971 15.3876 33.8547 15.2864 33.652 15.0828C33.4491 14.8803 33.3478 14.6387 33.3478 14.3559C33.3478 14.074 33.4491 13.832 33.652 13.629C33.8547 13.4264 34.0971 13.3251 34.3796 13.3251C34.6615 13.3251 34.899 13.4264 35.0933 13.629C35.2873 13.8325 35.384 14.074 35.384 14.3559C35.384 14.6383 35.2872 14.8803 35.0933 15.0828Z" fill="white"/>
<path d="M16.6631 38.3649C16.6631 39.1765 16.945 39.8636 17.5088 40.4274C18.0731 40.9913 18.7602 41.2732 19.5713 41.2732H21.5281L21.5549 47.2762C21.5549 48.0342 21.8193 48.678 22.3481 49.2068C22.8768 49.7356 23.5118 50 24.2518 50C25.0095 50 25.6531 49.7356 26.1819 49.2068C26.7108 48.678 26.9751 48.0343 26.9751 47.2762V41.2737H30.624V47.2762C30.624 48.0342 30.8883 48.678 31.4172 49.2068C31.946 49.7356 32.5891 50 33.3473 50C34.1049 50 34.7485 49.7356 35.2774 49.2068C35.8062 48.678 36.0705 48.0343 36.0705 47.2762V41.2737H38.0537C38.8469 41.2737 39.5251 40.9918 40.09 40.4279C40.6537 39.8641 40.9358 39.177 40.9358 38.3654V20.7542H16.6631V38.3649Z" fill="white"/>
<path d="M44.6921 20.2522C43.9515 20.2522 43.3171 20.5127 42.7882 21.0322C42.2595 21.5527 41.9951 22.192 41.9951 22.9491V34.3192C41.9951 35.0783 42.2594 35.721 42.7882 36.2498C43.3171 36.7786 43.952 37.043 44.6921 37.043C45.4497 37.043 46.0934 36.7786 46.6222 36.2498C47.151 35.721 47.4153 35.0783 47.4153 34.3192V22.9491C47.4153 22.1919 47.151 21.5527 46.6222 21.0322C46.0934 20.5127 45.4497 20.2522 44.6921 20.2522Z" fill="white"/>
</g>
<defs>
<clipPath id="clip0_4134_31291">
<rect width="44" height="44" fill="white" transform="translate(6.80029 6)"/>
</clipPath>
</defs>
</svg>
