<svg width="57" height="56" viewBox="0 0 57 56" fill="none" xmlns="http://www.w3.org/2000/svg">
<rect x="5.90039" y="5" width="46" height="46" rx="10" fill="white"/>
<path d="M15.3017 34.4263H17.6554V24.2716H15.3017V34.4263ZM16.4738 22.9399C17.2111 22.9399 17.7877 22.3651 17.7877 21.6466C17.7877 20.9185 17.2111 20.3438 16.4738 20.3438C15.746 20.3438 15.1694 20.9186 15.1694 21.6466C15.1694 22.3651 15.746 22.9399 16.4738 22.9399ZM25.4916 20.3724C21.5123 20.3724 19.0168 23.1219 19.0168 27.5192C19.0168 31.9165 21.5121 34.6564 25.4916 34.6564C29.4615 34.6564 31.957 31.9165 31.957 27.5192C31.957 23.1219 29.4617 20.3724 25.4916 20.3724ZM25.4916 22.48C27.9208 22.48 29.4709 24.4344 29.4709 27.5191C29.4709 30.5943 27.9208 32.5487 25.4916 32.5487C23.053 32.5487 21.5123 30.5943 21.5123 27.5191C21.5123 24.4344 23.053 22.48 25.4916 22.48ZM32.9498 30.5369C33.0538 33.0853 35.1144 34.6563 38.2525 34.6563C41.5514 34.6563 43.631 33.0085 43.631 30.3836C43.631 28.3239 42.4589 27.1647 39.6894 26.5229L38.1203 26.1589C36.4473 25.7565 35.7573 25.2201 35.7573 24.3004C35.7573 23.1508 36.797 22.3844 38.3377 22.3844C39.8973 22.3844 40.9653 23.1604 41.0788 24.4537H43.4041C43.3474 22.0203 41.3624 20.3725 38.3567 20.3725C35.3886 20.3725 33.2807 22.0298 33.2807 24.4823C33.2807 26.4558 34.4717 27.6821 36.9859 28.2665L38.7535 28.688C40.4738 29.1 41.1732 29.6748 41.1732 30.6711C41.1732 31.8207 40.0295 32.6446 38.3849 32.6446C36.7213 32.6446 35.4643 31.8111 35.313 30.537L32.9498 30.5369Z" fill="black"/>
</svg>
