<svg xmlns="http://www.w3.org/2000/svg" width="43" height="42" viewBox="0 0 43 42" fill="none">
    <g clip-path="url(#clip0_4135_31519)">
        <path d="M36.5167 33.3358C35.5542 32.5552 35.9287 30.8315 34.9295 29.981C35.8972 24.0923 33.1848 18.9017 29.9508 15.575C27.2365 12.7837 28.1115 10.0677 28.1115 7.7175C28.1115 3.962 26.5697 0 21.899 0C16.9062 0 15.5377 4.165 15.4887 6.5415C15.3697 12.25 16.642 13.734 13.3012 17.8885C9.37075 22.7763 8.7915 27.6517 9.67875 30.2382C9.264 30.7212 8.704 31.2568 7.6575 31.6995C4.7665 32.9595 6.88575 35.0682 6.086 36.5645C5.8585 36.9897 5.75 37.4342 5.75 37.8595C5.75 39.172 6.793 40.3078 8.68825 40.138C11.245 39.9105 13.604 41.7217 15.13 41.7217C16.4775 41.7217 17.5835 40.9552 18.098 39.9C20.5077 39.3067 23.4827 39.382 25.8907 40.0033C26.323 41.2125 27.4955 42 28.7992 42C31.6535 42 32.203 38.7642 35.4772 37.6688C36.6567 37.275 37.25 36.1305 37.25 35.0648C37.25 34.3823 37.0067 33.733 36.5167 33.3358ZM20.5095 15.022C19.9513 15.022 19.4893 14.5705 18.7595 14.028C17.8355 13.342 16.8958 12.9465 16.9062 12.2255C16.9062 11.7303 17.5695 11.578 18.427 11.0337C19.3475 10.451 19.7063 9.8595 20.6128 9.8595C21.5402 9.8595 21.8202 10.3285 23.0802 10.8727C24.3193 11.41 25.182 11.62 25.182 12.2255C25.182 12.8468 23.8853 13.2913 23.1555 13.7445C22.0828 14.406 21.5315 15.022 20.5095 15.022ZM23.4233 5.89575C24.9667 6.1425 25.14 8.855 24.4015 10.1903L23.7803 9.9365C24.1023 8.98625 24.097 7.42175 23.019 7.322C22.3347 7.259 21.8937 8.162 21.7992 8.9355C21.5315 8.8235 21.2392 8.743 20.884 8.71325C20.9925 7.098 22.0355 5.6735 23.4233 5.89575ZM17.468 6.475C18.651 6.181 19.3492 7.5565 19.3545 8.98625L18.812 9.31875C18.7385 8.7185 18.4708 7.749 17.7987 7.9555C17.0795 8.1795 17.1968 9.85075 17.5975 10.1937L17.062 10.4913C16.327 9.254 16.3288 6.7585 17.468 6.475ZM13.7667 40.1503C10.3315 38.5875 9.16425 38.9427 8.508 38.9427C7.14825 38.9427 6.70375 37.9295 7.21475 36.9705C7.64875 36.1567 7.514 35.3045 7.40725 34.6203C7.24275 33.572 7.213 33.2308 8.24375 32.7793C9.67 32.1738 10.3035 31.395 10.776 30.8123C12.1025 29.1725 13.4413 31.752 14.5385 34.0498C15.2508 35.539 16.6525 36.2932 17.0848 37.9435C17.482 39.4677 15.8422 41.0953 13.7667 40.1503ZM25.994 36.8708C23.572 38.0485 20.4868 38.5892 18.1785 37.394C17.8373 36.4087 17.2912 35.7718 16.7032 35.1313C17.6465 34.8828 18.3465 33.7067 17.5082 32.5255C16.614 31.2638 14.787 30.3835 12.9408 28.9555C11.2135 27.6202 10.6675 24.3285 13.0195 20.65C11.8732 23.9085 12.5435 26.9115 13.1192 27.7708C13.2382 26.0417 13.3747 23.1542 15.7372 19.6945C16.929 17.948 16.9465 15.6415 16.9727 14.1995L18.0577 14.9415C18.8558 15.5312 19.5242 16.1805 20.4832 16.1805C21.9007 16.1805 22.6847 15.365 23.7767 14.6877C24.2037 14.4252 24.8495 14.1593 25.392 13.79C26.302 18.123 30.0715 23.3345 30.2832 26.3025C31.16 24.4965 30.0348 20.153 30.0348 20.153C31.5083 22.4017 31.6255 24.276 31.6903 26.5755C32.721 26.9972 33.827 28.0963 33.9285 29.5435L33.4998 29.4945C33.2793 27.8862 28.9375 25.5238 28.5473 28.5513C26.4648 28.868 27.2225 32.1668 26.8025 34.3053C26.61 35.2835 26.253 36.057 25.994 36.8708ZM34.4745 36.799C32.7507 37.464 31.587 38.8763 30.7872 39.753C29.2472 41.4435 27.2102 40.6333 26.9932 39.0513C26.764 37.3608 27.6233 36.4385 27.9943 34.5467C28.332 32.8195 27.954 30.1612 28.7485 29.8778C29.2647 32.9455 32.364 31.6558 33.071 30.8193C34.2207 30.8193 34.317 31.2078 34.5743 32.284C34.7353 32.9577 34.9575 33.5247 35.5858 34.1915C36.3172 34.9738 36.0932 36.1743 34.4745 36.799ZM20.4745 14.0385C19.3352 14.0385 18.483 13.2807 17.79 12.6927C17.4348 12.3935 17.8775 11.8405 18.2328 12.1415C18.91 12.7155 19.5925 13.3228 20.4745 13.3228C21.5367 13.3228 22.473 12.4145 23.7418 11.914C24.174 11.7443 24.4207 12.4128 23.992 12.5825C22.76 13.0673 21.7712 14.0385 20.4745 14.0385Z" fill="white"/>
    </g>
    <defs>
        <clipPath id="clip0_4135_31519">
            <rect width="42" height="42" fill="white" transform="translate(0.5)"/>
        </clipPath>
    </defs>
</svg>