<svg width="57" height="56" viewBox="0 0 57 56" fill="none" xmlns="http://www.w3.org/2000/svg">
<rect x="5.6001" y="5" width="46" height="46" rx="10" fill="white"/>
<path d="M10.6001 31.9422H12.0117V28.2696C12.0117 27.5452 12.4879 27.0189 13.1682 27.0189C13.8259 27.0189 14.234 27.432 14.234 28.0998V31.9421H15.606V28.2355C15.606 27.5169 16.0708 27.0189 16.7511 27.0189C17.4428 27.0189 17.8283 27.4376 17.8283 28.1733V31.9422H19.2399V27.8282C19.2399 26.6285 18.4632 25.8306 17.2783 25.8306C16.4109 25.8306 15.6967 26.2947 15.4074 27.036H15.3734C15.1523 26.2664 14.5457 25.8306 13.6954 25.8306C12.8791 25.8306 12.2442 26.289 11.9834 26.9851H11.955V25.9438H10.6001V31.9422ZM22.3298 30.9746C21.7175 30.9746 21.3093 30.6633 21.3093 30.171C21.3093 29.6957 21.7005 29.3901 22.3808 29.3448L23.7697 29.2599V29.7183C23.7697 30.4426 23.1291 30.9746 22.3298 30.9746ZM21.9046 32.0384C22.6756 32.0384 23.4296 31.6367 23.7755 30.9859H23.8038V31.9422H25.1644V27.8112C25.1644 26.6059 24.195 25.8193 22.704 25.8193C21.1733 25.8193 20.2153 26.6228 20.1529 27.7433H21.4625C21.5532 27.2453 21.9784 26.9227 22.6473 26.9227C23.3446 26.9227 23.7698 27.2849 23.7698 27.913V28.3431L22.1824 28.4336C20.7198 28.5242 19.8978 29.1636 19.8978 30.2275C19.8978 31.3084 20.7424 32.0384 21.9046 32.0384ZM31.3609 28.0828C31.2646 26.8209 30.2838 25.8193 28.6965 25.8193C26.9504 25.8193 25.8166 27.0246 25.8166 28.9429C25.8166 30.8896 26.9504 32.0609 28.7078 32.0609C30.2159 32.0609 31.2532 31.1781 31.3666 29.8369H30.0343C29.904 30.5159 29.4391 30.9234 28.7248 30.9234C27.8291 30.9234 27.2509 30.1991 27.2509 28.9428C27.2509 27.7091 27.8234 26.9621 28.7135 26.9621C29.4675 26.9621 29.9153 27.4431 30.0287 28.0826H31.3609L31.3609 28.0828ZM35.7208 23.6406C33.3341 23.6406 31.8374 25.2647 31.8374 27.8622C31.8374 30.4597 33.334 32.0781 35.7208 32.0781C38.1018 32.0781 39.5985 30.4597 39.5985 27.8622C39.5985 25.2647 38.1019 23.6406 35.7208 23.6406ZM35.7208 24.8856C37.1777 24.8856 38.1074 26.04 38.1074 27.8622C38.1074 29.6787 37.1777 30.8331 35.7208 30.8331C34.2581 30.8331 33.3341 29.6787 33.3341 27.8622C33.3341 26.04 34.2582 24.8856 35.7208 24.8856ZM40.1939 29.6448C40.2563 31.1501 41.4922 32.0781 43.3743 32.0781C45.3529 32.0781 46.6001 31.1048 46.6001 29.5542C46.6001 28.3376 45.8971 27.6528 44.2361 27.2737L43.295 27.0587C42.2916 26.821 41.8777 26.5041 41.8777 25.9609C41.8777 25.2818 42.5013 24.8291 43.4254 24.8291C44.3608 24.8291 45.0014 25.2875 45.0694 26.0514H46.464C46.43 24.614 45.2395 23.6407 43.4368 23.6407C41.6566 23.6407 40.3924 24.6197 40.3924 26.0684C40.3924 27.2341 41.1067 27.9584 42.6146 28.3037L43.6747 28.5527C44.7065 28.796 45.126 29.1355 45.126 29.724C45.126 30.4031 44.4401 30.8898 43.4537 30.8898C42.4559 30.8898 41.702 30.3974 41.6113 29.6448H40.194L40.1939 29.6448Z" fill="black"/>
</svg>
